<?xml version="1.0" encoding="UTF-8"?>
<svg width="199px" height="25px" viewBox="0 0 199 25" version="1.1" xmlns="http://www.w3.org/2000/svg" xmlns:xlink="http://www.w3.org/1999/xlink">
    <!-- Generator: Sketch 52.4 (67378) - http://www.bohemiancoding.com/sketch -->
    <title>Password Manager</title>
    <desc>Created with Sketch.</desc>
    <g id="Page-1" stroke="none" stroke-width="1" fill="none" fill-rule="evenodd">
        <path d="M0.328,2.008 L5.224,2.008 C5.81600296,2.008 6.43599676,2.07599932 7.084,2.212 C7.73200324,2.34800068 8.32399732,2.58399832 8.86,2.92 C9.39600268,3.25600168 9.83599828,3.71599708 10.18,4.3 C10.5240017,4.88400292 10.696,5.6159956 10.696,6.496 C10.696,7.26400384 10.5560014,7.9279972 10.276,8.488 C9.9959986,9.0480028 9.62000236,9.5079982 9.148,9.868 C8.67599764,10.2280018 8.13200308,10.4959991 7.516,10.672 C6.89999692,10.8480009 6.25600336,10.936 5.584,10.936 L1.912,10.936 L1.912,19 L0.328,19 L0.328,2.008 Z M1.912,9.496 L5.512,9.496 C5.96000224,9.496 6.39999784,9.44400052 6.832,9.34 C7.26400216,9.23599948 7.64799832,9.06800116 7.984,8.836 C8.32000168,8.60399884 8.59199896,8.29600192 8.8,7.912 C9.00800104,7.52799808 9.112,7.0560028 9.112,6.496 C9.112,5.95199728 9.00400108,5.48800192 8.788,5.104 C8.57199892,4.71999808 8.29200172,4.40400124 7.948,4.156 C7.60399828,3.90799876 7.20800224,3.72800056 6.76,3.616 C6.31199776,3.50399944 5.86400224,3.448 5.416,3.448 L1.912,3.448 L1.912,9.496 Z M21.952,14.344 C21.952,14.8880027 21.9559999,15.3759978 21.964,15.808 C21.972,16.2400022 21.9839999,16.6399982 22,17.008 C22.0160001,17.3760018 22.0359999,17.7199984 22.06,18.04 C22.0840001,18.3600016 22.1199997,18.6799984 22.168,19 L20.824,19 C20.7279995,18.4559973 20.68,17.8560033 20.68,17.2 L20.632,17.2 C20.2159979,17.9200036 19.7000031,18.4479983 19.084,18.784 C18.4679969,19.1200017 17.6880047,19.288 16.744,19.288 C16.2639976,19.288 15.7920023,19.2280006 15.328,19.108 C14.8639977,18.9879994 14.4480018,18.7960013 14.08,18.532 C13.7119981,18.2679987 13.4120011,17.9280021 13.18,17.512 C12.9479988,17.0959979 12.832,16.592003 12.832,16 C12.832,15.1519958 13.0479978,14.4800025 13.48,13.984 C13.9120021,13.4879975 14.4439968,13.1160012 15.076,12.868 C15.7080031,12.6199988 16.3799964,12.4600004 17.092,12.388 C17.8040035,12.3159996 18.4319973,12.28 18.976,12.28 L20.656,12.28 L20.656,11.608 C20.656,10.6479952 20.3600029,9.96000208 19.768,9.544 C19.175997,9.12799792 18.4320045,8.92 17.536,8.92 C16.2559936,8.92 15.1280049,9.33599584 14.152,10.168 L13.312,9.184 C13.8400026,8.67199744 14.4959961,8.28400132 15.28,8.02 C16.0640039,7.75599868 16.8159964,7.624 17.536,7.624 C18.8800067,7.624 19.951996,7.93999684 20.752,8.572 C21.552004,9.20400316 21.952,10.223993 21.952,11.632 L21.952,14.344 Z M19.072,13.432 C18.4639969,13.432 17.8760028,13.4719996 17.308,13.552 C16.7399971,13.6320004 16.2280023,13.767999 15.772,13.96 C15.3159977,14.152001 14.9520013,14.4079984 14.68,14.728 C14.4079986,15.0480016 14.272,15.4479976 14.272,15.928 C14.272,16.2640017 14.3479992,16.5639987 14.5,16.828 C14.6520007,17.0920013 14.8479988,17.3079992 15.088,17.476 C15.3280012,17.6440008 15.5959985,17.7719996 15.892,17.86 C16.1880015,17.9480004 16.4879985,17.992 16.792,17.992 C17.5600038,17.992 18.1919975,17.8800011 18.688,17.656 C19.1840025,17.4319989 19.5799985,17.1400018 19.876,16.78 C20.1720015,16.4199982 20.3759994,16.0120023 20.488,15.556 C20.6000005,15.0999977 20.656,14.6400023 20.656,14.176 L20.656,13.432 L19.072,13.432 Z M25.456,16.168 C25.7600015,16.760003 26.207997,17.2119984 26.8,17.524 C27.3920029,17.8360016 28.0159967,17.992 28.672,17.992 C28.9760015,17.992 29.2799985,17.9440005 29.584,17.848 C29.8880015,17.7519995 30.1599988,17.6160009 30.4,17.44 C30.6400012,17.2639991 30.8359992,17.0520012 30.988,16.804 C31.1400007,16.5559988 31.216,16.2720016 31.216,15.952 C31.216,15.4399974 31.0520016,15.0560013 30.724,14.8 C30.3959983,14.5439987 29.9920024,14.3440007 29.512,14.2 C29.0319976,14.0559993 28.5040029,13.9320005 27.928,13.828 C27.3519971,13.7239995 26.8240024,13.5640011 26.344,13.348 C25.8639976,13.1319989 25.4600016,12.8320019 25.132,12.448 C24.8039983,12.0639981 24.64,11.5200035 24.64,10.816 C24.64,10.2719973 24.7519989,9.800002 24.976,9.4 C25.2000011,8.999998 25.4919982,8.66800132 25.852,8.404 C26.2120018,8.13999868 26.6159977,7.94400064 27.064,7.816 C27.5120022,7.68799936 27.9679977,7.624 28.432,7.624 C29.3440045,7.624 30.1319967,7.79199832 30.796,8.128 C31.4600033,8.46400168 31.9759981,8.9919964 32.344,9.712 L31.048,10.48 C30.7759986,9.96799744 30.436002,9.58000132 30.028,9.316 C29.6199979,9.05199868 29.0880033,8.92 28.432,8.92 C28.1759987,8.92 27.9080014,8.9599996 27.628,9.04 C27.3479986,9.1200004 27.0960011,9.23199928 26.872,9.376 C26.6479989,9.52000072 26.4600007,9.70399888 26.308,9.928 C26.1559992,10.1520011 26.08,10.4079986 26.08,10.696 C26.08,11.1920025 26.2439983,11.5599988 26.572,11.8 C26.9000016,12.0400012 27.3039976,12.2279993 27.784,12.364 C28.2640024,12.5000007 28.7919971,12.6159995 29.368,12.712 C29.9440029,12.8080005 30.4719976,12.9639989 30.952,13.18 C31.4320024,13.3960011 31.8359983,13.707998 32.164,14.116 C32.4920016,14.524002 32.656,15.1039962 32.656,15.856 C32.656,16.4320029 32.5480011,16.9319979 32.332,17.356 C32.1159989,17.7800021 31.8200019,18.1359986 31.444,18.424 C31.0679981,18.7120014 30.6400024,18.9279993 30.16,19.072 C29.6799976,19.2160007 29.1760026,19.288 28.648,19.288 C27.6879952,19.288 26.8120039,19.1040018 26.02,18.736 C25.227996,18.3679982 24.6160021,17.8000038 24.184,17.032 L25.456,16.168 Z M35.32,16.168 C35.6240015,16.760003 36.071997,17.2119984 36.664,17.524 C37.2560029,17.8360016 37.8799967,17.992 38.536,17.992 C38.8400015,17.992 39.1439984,17.9440005 39.448,17.848 C39.7520015,17.7519995 40.0239988,17.6160009 40.264,17.44 C40.5040012,17.2639991 40.6999992,17.0520012 40.852,16.804 C41.0040007,16.5559988 41.08,16.2720016 41.08,15.952 C41.08,15.4399974 40.9160016,15.0560013 40.588,14.8 C40.2599983,14.5439987 39.8560024,14.3440007 39.376,14.2 C38.8959976,14.0559993 38.3680028,13.9320005 37.792,13.828 C37.2159971,13.7239995 36.6880024,13.5640011 36.208,13.348 C35.7279976,13.1319989 35.3240016,12.8320019 34.996,12.448 C34.6679983,12.0639981 34.504,11.5200035 34.504,10.816 C34.504,10.2719973 34.6159988,9.800002 34.84,9.4 C35.0640011,8.999998 35.3559982,8.66800132 35.716,8.404 C36.0760018,8.13999868 36.4799977,7.94400064 36.928,7.816 C37.3760022,7.68799936 37.8319976,7.624 38.296,7.624 C39.2080045,7.624 39.9959966,7.79199832 40.66,8.128 C41.3240033,8.46400168 41.8399981,8.9919964 42.208,9.712 L40.912,10.48 C40.6399986,9.96799744 40.300002,9.58000132 39.892,9.316 C39.4839979,9.05199868 38.9520032,8.92 38.296,8.92 C38.0399987,8.92 37.7720014,8.9599996 37.492,9.04 C37.2119986,9.1200004 36.9600011,9.23199928 36.736,9.376 C36.5119988,9.52000072 36.3240007,9.70399888 36.172,9.928 C36.0199992,10.1520011 35.944,10.4079986 35.944,10.696 C35.944,11.1920025 36.1079983,11.5599988 36.436,11.8 C36.7640016,12.0400012 37.1679976,12.2279993 37.648,12.364 C38.1280024,12.5000007 38.6559971,12.6159995 39.232,12.712 C39.8080028,12.8080005 40.3359976,12.9639989 40.816,13.18 C41.2960024,13.3960011 41.6999983,13.707998 42.028,14.116 C42.3560016,14.524002 42.52,15.1039962 42.52,15.856 C42.52,16.4320029 42.412001,16.9319979 42.196,17.356 C41.9799989,17.7800021 41.6840018,18.1359986 41.308,18.424 C40.9319981,18.7120014 40.5040024,18.9279993 40.024,19.072 C39.5439976,19.2160007 39.0400026,19.288 38.512,19.288 C37.5519952,19.288 36.6760039,19.1040018 35.884,18.736 C35.091996,18.3679982 34.4800021,17.8000038 34.048,17.032 L35.32,16.168 Z M43.5999999,7.912 L45.1839999,7.912 L47.8719999,17.2 L47.9199999,17.2 L51.0159999,7.912 L52.3839999,7.912 L55.6719999,17.2 L55.7199999,17.2 L58.3359999,7.912 L59.7759999,7.912 L56.5119999,19 L55.0239999,19 L51.7119999,9.928 L51.6639999,9.928 L48.5679999,19 L47.0799999,19 L43.5999999,7.912 Z M61.0719999,13.456 C61.0719999,12.6079958 61.2159985,11.8280036 61.5039999,11.116 C61.7920014,10.4039964 62.1919974,9.7880026 62.7039999,9.268 C63.2160025,8.7479974 63.8319963,8.34400144 64.5519999,8.056 C65.2720035,7.76799856 66.0559957,7.624 66.9039999,7.624 C67.7520042,7.624 68.5319964,7.76799856 69.2439999,8.056 C69.9560035,8.34400144 70.5719973,8.7479974 71.0919999,9.268 C71.6120025,9.7880026 72.0159985,10.4039964 72.3039999,11.116 C72.5920014,11.8280036 72.7359999,12.6079958 72.7359999,13.456 C72.7359999,14.3040042 72.5920014,15.0839964 72.3039999,15.796 C72.0159985,16.5080036 71.6120025,17.1239974 71.0919999,17.644 C70.5719973,18.1640026 69.9560035,18.5679986 69.2439999,18.856 C68.5319964,19.1440014 67.7520042,19.288 66.9039999,19.288 C66.0559957,19.288 65.2720035,19.1440014 64.5519999,18.856 C63.8319963,18.5679986 63.2160025,18.1640026 62.7039999,17.644 C62.1919974,17.1239974 61.7920014,16.5080036 61.5039999,15.796 C61.2159985,15.0839964 61.0719999,14.3040042 61.0719999,13.456 Z M62.5119999,13.456 C62.5119999,14.0800031 62.6119989,14.6679972 62.8119999,15.22 C63.0120009,15.7720028 63.303998,16.251998 63.6879999,16.66 C64.0720018,17.068002 64.5359972,17.3919988 65.0799999,17.632 C65.6240026,17.8720012 66.2319966,17.992 66.9039999,17.992 C67.5760033,17.992 68.1839972,17.8720012 68.7279999,17.632 C69.2720026,17.3919988 69.735998,17.068002 70.1199999,16.66 C70.5040018,16.251998 70.7959989,15.7720028 70.9959999,15.22 C71.1960009,14.6679972 71.2959999,14.0800031 71.2959999,13.456 C71.2959999,12.8319969 71.1960009,12.2440028 70.9959999,11.692 C70.7959989,11.1399972 70.5040018,10.660002 70.1199999,10.252 C69.735998,9.84399796 69.2720026,9.5200012 68.7279999,9.28 C68.1839972,9.0399988 67.5760033,8.92 66.9039999,8.92 C66.2319966,8.92 65.6240026,9.0399988 65.0799999,9.28 C64.5359972,9.5200012 64.0720018,9.84399796 63.6879999,10.252 C63.303998,10.660002 63.0120009,11.1399972 62.8119999,11.692 C62.6119989,12.2440028 62.5119999,12.8319969 62.5119999,13.456 Z M75.5919999,11.032 C75.5919999,10.823999 75.584,10.5720015 75.5679999,10.276 C75.5519998,9.97999852 75.54,9.68000152 75.5319999,9.376 C75.5239999,9.07199848 75.512,8.78800132 75.4959999,8.524 C75.4799998,8.25999868 75.4719999,8.05600072 75.4719999,7.912 L76.9119999,7.912 C76.928,8.32800208 76.9399999,8.72799808 76.9479999,9.112 C76.956,9.49600192 76.9759998,9.74399944 77.0079999,9.856 C77.3760018,9.19999672 77.847997,8.66400208 78.4239999,8.248 C79.0000028,7.83199792 79.7039958,7.624 80.5359999,7.624 C80.6800006,7.624 80.8199992,7.63599988 80.9559999,7.66 C81.0920006,7.68400012 81.2319992,7.71199984 81.3759999,7.744 L81.2079999,9.16 C81.015999,9.09599968 80.8320008,9.064 80.6559999,9.064 C80.0319968,9.064 79.4920022,9.163999 79.0359999,9.364 C78.5799976,9.564001 78.2040014,9.83999824 77.9079999,10.192 C77.6119984,10.5440018 77.3920006,10.9559976 77.2479999,11.428 C77.1039992,11.9000024 77.0319999,12.4079973 77.0319999,12.952 L77.0319999,19 L75.5919999,19 L75.5919999,11.032 Z M92.4879999,17.056 L92.4399999,17.056 C92.2159988,17.4400019 91.9360016,17.7719986 91.5999999,18.052 C91.2639982,18.3320014 90.9000019,18.5639991 90.5079999,18.748 C90.1159979,18.9320009 89.7040021,19.0679996 89.2719999,19.156 C88.8399977,19.2440004 88.416002,19.288 87.9999999,19.288 C87.1519957,19.288 86.3680035,19.1440014 85.6479999,18.856 C84.9279963,18.5679986 84.3120025,18.1640026 83.7999999,17.644 C83.2879973,17.1239974 82.8880013,16.5080036 82.5999999,15.796 C82.3119985,15.0839964 82.1679999,14.3040042 82.1679999,13.456 C82.1679999,12.6079958 82.3119985,11.8280036 82.5999999,11.116 C82.8880013,10.4039964 83.2879973,9.7880026 83.7999999,9.268 C84.3120025,8.7479974 84.9279963,8.34400144 85.6479999,8.056 C86.3680035,7.76799856 87.1519957,7.624 87.9999999,7.624 C88.416002,7.624 88.8399977,7.66799956 89.2719999,7.756 C89.7040021,7.84400044 90.1159979,7.97999908 90.5079999,8.164 C90.9000019,8.34800092 91.2639982,8.5799986 91.5999999,8.86 C91.9360016,9.1400014 92.2159988,9.47199808 92.4399999,9.856 L92.4879999,9.856 L92.4879999,0.856 L93.9279999,0.856 L93.9279999,19 L92.4879999,19 L92.4879999,17.056 Z M92.6319999,13.456 C92.6319999,12.8319969 92.5120011,12.2440028 92.2719999,11.692 C92.0319987,11.1399972 91.704002,10.660002 91.2879999,10.252 C90.8719978,9.84399796 90.3840027,9.5200012 89.8239999,9.28 C89.2639971,9.0399988 88.6560032,8.92 87.9999999,8.92 C87.3279965,8.92 86.7200026,9.0399988 86.1759999,9.28 C85.6319972,9.5200012 85.1680018,9.84399796 84.7839999,10.252 C84.399998,10.660002 84.1080009,11.1399972 83.9079999,11.692 C83.7079989,12.2440028 83.6079999,12.8319969 83.6079999,13.456 C83.6079999,14.0800031 83.7079989,14.6679972 83.9079999,15.22 C84.1080009,15.7720028 84.399998,16.251998 84.7839999,16.66 C85.1680018,17.068002 85.6319972,17.3919988 86.1759999,17.632 C86.7200026,17.8720012 87.3279965,17.992 87.9999999,17.992 C88.6560032,17.992 89.2639971,17.8720012 89.8239999,17.632 C90.3840027,17.3919988 90.8719978,17.068002 91.2879999,16.66 C91.704002,16.251998 92.0319987,15.7720028 92.2719999,15.22 C92.5120011,14.6679972 92.6319999,14.0800031 92.6319999,13.456 Z M103.024,2.008 L107.632,2.008 L112.168,13.912 L116.752,2.008 L121.312,2.008 L121.312,19 L118.432,19 L118.432,4.888 L118.384,4.888 L113.224,19 L111.112,19 L105.952,4.888 L105.904,4.888 L105.904,19 L103.024,19 L103.024,2.008 Z M131.752,17.416 L131.68,17.416 C131.263998,18.0720033 130.736003,18.5479985 130.096,18.844 C129.455997,19.1400015 128.752004,19.288 127.984,19.288 C127.455997,19.288 126.940002,19.2160007 126.436,19.072 C125.931997,18.9279993 125.484002,18.7120014 125.092,18.424 C124.699998,18.1359986 124.384001,17.7760022 124.144,17.344 C123.903999,16.9119978 123.784,16.4080029 123.784,15.832 C123.784,15.2079969 123.895999,14.6760022 124.12,14.236 C124.344001,13.7959978 124.643998,13.4280015 125.02,13.132 C125.396002,12.8359985 125.831997,12.6000009 126.328,12.424 C126.824002,12.2479991 127.339997,12.1160004 127.876,12.028 C128.412003,11.9399996 128.951997,11.8840001 129.496,11.86 C130.040003,11.8359999 130.551997,11.824 131.032,11.824 L131.752,11.824 L131.752,11.512 C131.752,10.7919964 131.504002,10.2520018 131.008,9.892 C130.511997,9.5319982 129.880004,9.352 129.112,9.352 C128.503997,9.352 127.936002,9.45999892 127.408,9.676 C126.879997,9.89200108 126.424002,10.1839982 126.04,10.552 L124.528,9.04 C125.168003,8.38399672 125.915996,7.91200144 126.772,7.624 C127.628004,7.33599856 128.511995,7.192 129.424,7.192 C130.240004,7.192 130.927997,7.28399908 131.488,7.468 C132.048003,7.65200092 132.511998,7.88799856 132.88,8.176 C133.248002,8.46400144 133.531999,8.79599812 133.732,9.172 C133.932001,9.54800188 134.075999,9.92799808 134.164,10.312 C134.252,10.6960019 134.304,11.0679982 134.32,11.428 C134.336,11.7880018 134.344,12.1039986 134.344,12.376 L134.344,19 L131.752,19 L131.752,17.416 Z M131.584,13.84 L130.984,13.84 C130.583998,13.84 130.136002,13.8559998 129.64,13.888 C129.143997,13.9200002 128.676002,13.9959994 128.236,14.116 C127.795998,14.2360006 127.424001,14.4119988 127.12,14.644 C126.815998,14.8760012 126.664,15.1999979 126.664,15.616 C126.664,15.8880014 126.723999,16.1159991 126.844,16.3 C126.964,16.4840009 127.119999,16.6399994 127.312,16.768 C127.504001,16.8960006 127.719999,16.9879997 127.96,17.044 C128.200001,17.1000003 128.439999,17.128 128.68,17.128 C129.672005,17.128 130.403997,16.8920024 130.876,16.42 C131.348002,15.9479976 131.584,15.3040041 131.584,14.488 L131.584,13.84 Z M137.08,7.48 L139.816,7.48 L139.816,9.328 L139.864,9.328 C140.136001,8.75199712 140.551997,8.25200212 141.112,7.828 C141.672003,7.40399788 142.431995,7.192 143.392,7.192 C144.160004,7.192 144.811997,7.31999872 145.348,7.576 C145.884003,7.83200128 146.319998,8.16799792 146.656,8.584 C146.992002,9.00000208 147.231999,9.47999728 147.376,10.024 C147.520001,10.5680027 147.592,11.135997 147.592,11.728 L147.592,19 L144.712,19 L144.712,13.168 C144.712,12.8479984 144.696,12.492002 144.664,12.1 C144.632,11.707998 144.548001,11.3400017 144.412,10.996 C144.275999,10.6519983 144.064001,10.3640012 143.776,10.132 C143.487998,9.89999884 143.096002,9.784 142.6,9.784 C142.119997,9.784 141.716001,9.8639992 141.388,10.024 C141.059998,10.1840008 140.788001,10.3999986 140.572,10.672 C140.355999,10.9440014 140.2,11.2559982 140.104,11.608 C140.007999,11.9600018 139.96,12.3279981 139.96,12.712 L139.96,19 L137.08,19 L137.08,7.48 Z M157.696,17.416 L157.624,17.416 C157.207998,18.0720033 156.680003,18.5479985 156.04,18.844 C155.399997,19.1400015 154.696004,19.288 153.928,19.288 C153.399997,19.288 152.884002,19.2160007 152.38,19.072 C151.875997,18.9279993 151.428002,18.7120014 151.036,18.424 C150.643998,18.1359986 150.328001,17.7760022 150.088,17.344 C149.847999,16.9119978 149.728,16.4080029 149.728,15.832 C149.728,15.2079969 149.839999,14.6760022 150.064,14.236 C150.288001,13.7959978 150.587998,13.4280015 150.964,13.132 C151.340002,12.8359985 151.775997,12.6000009 152.272,12.424 C152.768002,12.2479991 153.283997,12.1160004 153.82,12.028 C154.356003,11.9399996 154.895997,11.8840001 155.44,11.86 C155.984003,11.8359999 156.495997,11.824 156.976,11.824 L157.696,11.824 L157.696,11.512 C157.696,10.7919964 157.448002,10.2520018 156.952,9.892 C156.455997,9.5319982 155.824004,9.352 155.056,9.352 C154.447997,9.352 153.880002,9.45999892 153.352,9.676 C152.823997,9.89200108 152.368002,10.1839982 151.984,10.552 L150.472,9.04 C151.112003,8.38399672 151.859996,7.91200144 152.716,7.624 C153.572004,7.33599856 154.455995,7.192 155.368,7.192 C156.184004,7.192 156.871997,7.28399908 157.432,7.468 C157.992003,7.65200092 158.455998,7.88799856 158.824,8.176 C159.192002,8.46400144 159.475999,8.79599812 159.676,9.172 C159.876001,9.54800188 160.019999,9.92799808 160.108,10.312 C160.196,10.6960019 160.248,11.0679982 160.264,11.428 C160.28,11.7880018 160.288,12.1039986 160.288,12.376 L160.288,19 L157.696,19 L157.696,17.416 Z M157.528,13.84 L156.928,13.84 C156.527998,13.84 156.080002,13.8559998 155.584,13.888 C155.087997,13.9200002 154.620002,13.9959994 154.18,14.116 C153.739998,14.2360006 153.368001,14.4119988 153.064,14.644 C152.759998,14.8760012 152.608,15.1999979 152.608,15.616 C152.608,15.8880014 152.667999,16.1159991 152.788,16.3 C152.908,16.4840009 153.063999,16.6399994 153.256,16.768 C153.448001,16.8960006 153.663999,16.9879997 153.904,17.044 C154.144001,17.1000003 154.383999,17.128 154.624,17.128 C155.616005,17.128 156.347997,16.8920024 156.82,16.42 C157.292002,15.9479976 157.528,15.3040041 157.528,14.488 L157.528,13.84 Z M174.88,7.48 L174.88,17.968 C174.88,19.0080052 174.752001,19.9479958 174.496,20.788 C174.239999,21.6280042 173.844002,22.3399971 173.308,22.924 C172.771997,23.5080029 172.096004,23.9599984 171.28,24.28 C170.463996,24.6000016 169.496005,24.76 168.376,24.76 C167.303994,24.76 166.288005,24.6240014 165.328,24.352 C164.367995,24.0799986 163.480004,23.5840036 162.664,22.864 L164.392,20.512 C164.968003,21.0400026 165.567997,21.4479986 166.192,21.736 C166.816003,22.0240014 167.535996,22.168 168.352,22.168 C169.040003,22.168 169.619997,22.072001 170.092,21.88 C170.564002,21.687999 170.939998,21.4240017 171.22,21.088 C171.500001,20.7519983 171.699999,20.3480024 171.82,19.876 C171.94,19.4039976 172,18.8800029 172,18.304 L172,17.464 L171.952,17.464 C171.535998,18.0240028 170.984003,18.4439986 170.296,18.724 C169.607996,19.0040014 168.904003,19.144 168.184,19.144 C167.319995,19.144 166.536003,18.9880016 165.832,18.676 C165.127996,18.3639984 164.524002,17.9440026 164.02,17.416 C163.515997,16.8879974 163.128001,16.2640036 162.856,15.544 C162.583998,14.8239964 162.448,14.0560041 162.448,13.24 C162.448,12.3919958 162.575999,11.6000037 162.832,10.864 C163.088001,10.1279963 163.463997,9.48800272 163.96,8.944 C164.456002,8.39999728 165.051996,7.97200156 165.748,7.66 C166.444003,7.34799844 167.239995,7.192 168.136,7.192 C168.952004,7.192 169.711996,7.3519984 170.416,7.672 C171.120003,7.9920016 171.679998,8.50399648 172.096,9.208 L172.144,9.208 L172.144,7.48 L174.88,7.48 Z M168.736,9.784 C168.223997,9.784 167.760002,9.86799916 167.344,10.036 C166.927998,10.2040008 166.572001,10.4359985 166.276,10.732 C165.979998,11.0280015 165.748001,11.3879979 165.58,11.812 C165.411999,12.2360021 165.328,12.7039974 165.328,13.216 C165.328,13.6800023 165.411999,14.111998 165.58,14.512 C165.748001,14.912002 165.983998,15.2639985 166.288,15.568 C166.592001,15.8720015 166.951998,16.1119991 167.368,16.288 C167.784002,16.4640009 168.231997,16.552 168.712,16.552 C169.240002,16.552 169.715998,16.4640009 170.14,16.288 C170.564002,16.1119991 170.923998,15.8760015 171.22,15.58 C171.516001,15.2839985 171.743999,14.9280021 171.904,14.512 C172.064001,14.0959979 172.144,13.6480024 172.144,13.168 C172.144,12.159995 171.840003,11.3440031 171.232,10.72 C170.623997,10.0959969 169.792005,9.784 168.736,9.784 Z M180.088,14.248 C180.184,15.1120043 180.519997,15.7839976 181.096,16.264 C181.672003,16.7440024 182.367996,16.984 183.184,16.984 C183.904003,16.984 184.507997,16.8360015 184.996,16.54 C185.484002,16.2439985 185.911998,15.8720022 186.28,15.424 L188.344,16.984 C187.671996,17.8160042 186.920004,18.4079982 186.088,18.76 C185.255996,19.1120018 184.384004,19.288 183.472,19.288 C182.607995,19.288 181.792004,19.1440014 181.024,18.856 C180.255996,18.5679986 179.592003,18.1600026 179.032,17.632 C178.471997,17.1039974 178.028001,16.4680037 177.7,15.724 C177.371998,14.9799963 177.208,14.1520046 177.208,13.24 C177.208,12.3279954 177.371998,11.5000037 177.7,10.756 C178.028001,10.0119963 178.471997,9.37600264 179.032,8.848 C179.592003,8.31999736 180.255996,7.91200144 181.024,7.624 C181.792004,7.33599856 182.607995,7.192 183.472,7.192 C184.272004,7.192 185.003996,7.3319986 185.668,7.612 C186.332003,7.8920014 186.899997,8.29599736 187.372,8.824 C187.844002,9.35200264 188.211998,10.0039961 188.476,10.78 C188.740001,11.5560039 188.872,12.447995 188.872,13.456 L188.872,14.248 L180.088,14.248 Z M185.992,12.088 C185.976,11.2399958 185.712002,10.5720024 185.2,10.084 C184.687997,9.59599756 183.976004,9.352 183.064,9.352 C182.199995,9.352 181.516002,9.59999752 181.012,10.096 C180.507997,10.5920025 180.2,11.2559958 180.088,12.088 L185.992,12.088 Z M191.2,7.48 L194.08,7.48 L194.08,9.304 L194.128,9.304 C194.448001,8.63199664 194.903997,8.11200184 195.496,7.744 C196.088003,7.37599816 196.767996,7.192 197.536,7.192 C197.712001,7.192 197.883999,7.20799984 198.052,7.24 C198.220001,7.27200016 198.391999,7.31199976 198.568,7.36 L198.568,10.144 C198.327999,10.0799997 198.092001,10.0280002 197.86,9.988 C197.627999,9.9479998 197.400001,9.928 197.176,9.928 C196.503996,9.928 195.964002,10.0519988 195.556,10.3 C195.147998,10.5480012 194.836001,10.8319984 194.62,11.152 C194.403999,11.4720016 194.26,11.7919984 194.188,12.112 C194.115999,12.4320016 194.08,12.6719992 194.08,12.832 L194.08,19 L191.2,19 L191.2,7.48 Z" id="Password-Manager" fill="#1C68D6"></path>
    </g>
</svg>