<?xml version="1.0" encoding="UTF-8"?>
<svg width="210px" height="27px" viewBox="0 0 210 27" version="1.1" xmlns="http://www.w3.org/2000/svg" xmlns:xlink="http://www.w3.org/1999/xlink">
    <!-- Generator: Sketch 52.4 (67378) - http://www.bohemiancoding.com/sketch -->
    <title>Password Manager</title>
    <desc>Created with Sketch.</desc>
    <g id="Page-1" stroke="none" stroke-width="1" fill="none" fill-rule="evenodd">
        <path d="M0.522,1.592 L5.826,1.592 C6.46733654,1.592 7.13899649,1.66566593 7.841,1.813 C8.54300351,1.96033407 9.18433043,2.21599818 9.765,2.58 C10.3456696,2.94400182 10.8223315,3.44233017 11.195,4.075 C11.5676685,4.70766983 11.754,5.5006619 11.754,6.454 C11.754,7.28600416 11.6023348,8.0053303 11.299,8.612 C10.9956651,9.2186697 10.5883359,9.71699805 10.077,10.107 C9.56566411,10.4970019 8.97633667,10.7873324 8.309,10.978 C7.64166333,11.1686676 6.94400364,11.264 6.216,11.264 L2.238,11.264 L2.238,20 L0.522,20 L0.522,1.592 Z M2.238,9.704 L6.138,9.704 C6.62333576,9.704 7.09999766,9.64766723 7.568,9.535 C8.03600234,9.42233277 8.45199818,9.24033459 8.816,8.989 C9.18000182,8.73766541 9.47466554,8.40400208 9.7,7.988 C9.92533446,7.57199792 10.038,7.0606697 10.038,6.454 C10.038,5.86466372 9.92100117,5.36200208 9.687,4.946 C9.45299883,4.52999792 9.14966853,4.18766801 8.777,3.919 C8.40433147,3.65033199 7.97533576,3.45533394 7.49,3.334 C7.00466424,3.21266606 6.51933576,3.152 6.034,3.152 L2.238,3.152 L2.238,9.704 Z M23.578,14.956 C23.578,15.5453363 23.5823333,16.0739977 23.591,16.542 C23.5996667,17.0100023 23.6126666,17.4433313 23.63,17.842 C23.6473334,18.2406687 23.6689999,18.6133316 23.695,18.96 C23.7210001,19.3066684 23.7599997,19.6533316 23.812,20 L22.356,20 C22.2519995,19.4106637 22.2,18.7606702 22.2,18.05 L22.148,18.05 C21.6973311,18.8300039 21.1383367,19.4019982 20.471,19.766 C19.8036633,20.1300018 18.9586718,20.312 17.936,20.312 C17.4159974,20.312 16.9046692,20.2470007 16.402,20.117 C15.8993308,19.9869993 15.4486687,19.7790014 15.05,19.493 C14.6513313,19.2069986 14.3263346,18.8386689 14.075,18.388 C13.8236654,17.9373311 13.698,17.3913365 13.698,16.75 C13.698,15.8313287 13.9319977,15.103336 14.4,14.566 C14.8680023,14.028664 15.4443299,13.625668 16.129,13.357 C16.8136701,13.088332 17.5416628,12.9150004 18.313,12.837 C19.0843372,12.7589996 19.7646637,12.72 20.354,12.72 L22.174,12.72 L22.174,11.992 C22.174,10.9519948 21.8533365,10.2066689 21.212,9.756 C20.5706635,9.30533108 19.7646715,9.08 18.794,9.08 C17.4073264,9.08 16.1853386,9.53066216 15.128,10.432 L14.218,9.366 C14.7900029,8.81133056 15.5006624,8.39100143 16.35,8.105 C17.1993376,7.81899857 18.0139961,7.676 18.794,7.676 C20.2500073,7.676 21.411329,8.01832991 22.278,8.703 C23.144671,9.38767009 23.578,10.492659 23.578,12.018 L23.578,14.956 Z M20.458,13.968 C19.79933,13.968 19.1623364,14.0113329 18.547,14.098 C17.9316636,14.1846671 17.3770025,14.331999 16.883,14.54 C16.3889975,14.748001 15.9946681,15.0253316 15.7,15.372 C15.4053319,15.7186684 15.258,16.1519974 15.258,16.672 C15.258,17.0360018 15.3403325,17.3609986 15.505,17.647 C15.6696675,17.9330014 15.8819987,18.1669991 16.142,18.349 C16.4020013,18.5310009 16.6923317,18.6696662 17.013,18.765 C17.3336683,18.8603338 17.658665,18.908 17.988,18.908 C18.8200042,18.908 19.504664,18.7866679 20.042,18.544 C20.579336,18.3013321 21.0083317,17.9850019 21.329,17.595 C21.6496683,17.2049981 21.8706661,16.7630025 21.992,16.269 C22.1133339,15.7749975 22.174,15.2766692 22.174,14.774 L22.174,13.968 L20.458,13.968 Z M27.004,16.932 C27.333335,17.5733365 27.8186635,18.0629983 28.46,18.401 C29.1013366,18.7390017 29.7773298,18.908 30.488,18.908 C30.817335,18.908 31.146665,18.8560005 31.476,18.752 C31.805335,18.6479995 32.0999987,18.5006676 32.36,18.31 C32.6200013,18.1193324 32.8323325,17.889668 32.997,17.621 C33.1616675,17.352332 33.244,17.0446684 33.244,16.698 C33.244,16.1433306 33.0663351,15.7273347 32.711,15.45 C32.3556649,15.1726653 31.9180026,14.9560008 31.398,14.8 C30.8779974,14.6439992 30.3060031,14.5096672 29.682,14.397 C29.0579969,14.2843328 28.4860026,14.1110012 27.966,13.877 C27.4459974,13.6429988 27.0083351,13.3180021 26.653,12.902 C26.2976649,12.4859979 26.12,11.8966705 26.12,11.134 C26.12,10.5446637 26.2413321,10.0333355 26.484,9.6 C26.7266679,9.1666645 27.0429981,8.80700143 27.433,8.521 C27.823002,8.23499857 28.2606643,8.02266736 28.746,7.884 C29.2313358,7.74533264 29.7253308,7.676 30.228,7.676 C31.216005,7.676 32.0696631,7.85799818 32.789,8.222 C33.5083369,8.58600182 34.0673314,9.1579961 34.466,9.938 L33.062,10.77 C32.7673319,10.2153306 32.3990022,9.79500143 31.957,9.509 C31.5149978,9.22299857 30.9386702,9.08 30.228,9.08 C29.9506653,9.08 29.6603349,9.1233329 29.357,9.21 C29.0536652,9.2966671 28.7806679,9.41799922 28.538,9.574 C28.2953321,9.73000078 28.0916675,9.92933212 27.927,10.172 C27.7623325,10.4146679 27.68,10.6919984 27.68,11.004 C27.68,11.541336 27.8576649,11.9399987 28.213,12.2 C28.5683351,12.4600013 29.0059974,12.6636659 29.526,12.811 C30.0460026,12.9583341 30.6179969,13.0839995 31.242,13.188 C31.8660031,13.2920005 32.4379974,13.4609988 32.958,13.695 C33.4780026,13.9290012 33.9156649,14.2669978 34.271,14.709 C34.6263351,15.1510022 34.804,15.7793293 34.804,16.594 C34.804,17.2180031 34.6870012,17.7596644 34.453,18.219 C34.2189988,18.6783356 33.8983354,19.0639984 33.491,19.376 C33.0836646,19.6880016 32.6200026,19.9219992 32.1,20.078 C31.5799974,20.2340008 31.0340029,20.312 30.462,20.312 C29.4219948,20.312 28.4730043,20.1126687 27.615,19.714 C26.7569957,19.3153313 26.0940024,18.7000042 25.626,17.868 L27.004,16.932 Z M37.32,16.932 C37.649335,17.5733365 38.1346635,18.0629983 38.776,18.401 C39.4173366,18.7390017 40.0933298,18.908 40.804,18.908 C41.133335,18.908 41.462665,18.8560005 41.792,18.752 C42.121335,18.6479995 42.4159987,18.5006676 42.676,18.31 C42.9360013,18.1193324 43.1483325,17.889668 43.313,17.621 C43.4776675,17.352332 43.56,17.0446684 43.56,16.698 C43.56,16.1433306 43.3823351,15.7273347 43.027,15.45 C42.6716649,15.1726653 42.2340026,14.9560008 41.714,14.8 C41.1939974,14.6439992 40.6220031,14.5096672 39.998,14.397 C39.3739969,14.2843328 38.8020026,14.1110012 38.282,13.877 C37.7619974,13.6429988 37.3243351,13.3180021 36.969,12.902 C36.6136649,12.4859979 36.436,11.8966705 36.436,11.134 C36.436,10.5446637 36.5573321,10.0333355 36.8,9.6 C37.0426679,9.1666645 37.3589981,8.80700143 37.749,8.521 C38.139002,8.23499857 38.5766643,8.02266736 39.062,7.884 C39.5473358,7.74533264 40.0413308,7.676 40.544,7.676 C41.532005,7.676 42.3856631,7.85799818 43.105,8.222 C43.824337,8.58600182 44.3833314,9.1579961 44.782,9.938 L43.378,10.77 C43.0833319,10.2153306 42.7150022,9.79500143 42.273,9.509 C41.8309978,9.22299857 41.2546702,9.08 40.544,9.08 C40.2666653,9.08 39.9763349,9.1233329 39.673,9.21 C39.3696652,9.2966671 39.0966679,9.41799922 38.854,9.574 C38.6113321,9.73000078 38.4076675,9.92933212 38.243,10.172 C38.0783325,10.4146679 37.996,10.6919984 37.996,11.004 C37.996,11.541336 38.1736649,11.9399987 38.529,12.2 C38.8843351,12.4600013 39.3219974,12.6636659 39.842,12.811 C40.3620026,12.9583341 40.9339969,13.0839995 41.558,13.188 C42.1820031,13.2920005 42.7539974,13.4609988 43.274,13.695 C43.7940026,13.9290012 44.2316649,14.2669978 44.587,14.709 C44.9423351,15.1510022 45.12,15.7793293 45.12,16.594 C45.12,17.2180031 45.0030012,17.7596644 44.769,18.219 C44.5349989,18.6783356 44.2143354,19.0639984 43.807,19.376 C43.3996647,19.6880016 42.9360026,19.9219992 42.416,20.078 C41.8959974,20.2340008 41.3500029,20.312 40.778,20.312 C39.7379948,20.312 38.7890043,20.1126687 37.931,19.714 C37.0729957,19.3153313 36.4100024,18.7000042 35.942,17.868 L37.32,16.932 Z M45.92,7.988 L47.636,7.988 L50.548,18.05 L50.6,18.05 L53.954,7.988 L55.436,7.988 L58.998,18.05 L59.05,18.05 L61.884,7.988 L63.444,7.988 L59.908,20 L58.296,20 L54.708,10.172 L54.656,10.172 L51.302,20 L49.69,20 L45.92,7.988 Z M64.478,13.994 C64.478,13.0753287 64.6339985,12.2303372 64.946,11.459 C65.2580016,10.6876628 65.6913306,10.0203361 66.246,9.457 C66.8006695,8.89366385 67.4679961,8.45600156 68.248,8.144 C69.0280039,7.83199844 69.8773288,7.676 70.796,7.676 C71.7146713,7.676 72.5596629,7.83199844 73.331,8.144 C74.1023372,8.45600156 74.7696639,8.89366385 75.333,9.457 C75.8963362,10.0203361 76.3339985,10.6876628 76.646,11.459 C76.9580016,12.2303372 77.114,13.0753287 77.114,13.994 C77.114,14.9126713 76.9580016,15.7576628 76.646,16.529 C76.3339985,17.3003372 75.8963362,17.9676639 75.333,18.531 C74.7696639,19.0943362 74.1023372,19.5319984 73.331,19.844 C72.5596629,20.1560016 71.7146713,20.312 70.796,20.312 C69.8773288,20.312 69.0280039,20.1560016 68.248,19.844 C67.4679961,19.5319984 66.8006695,19.0943362 66.246,18.531 C65.6913306,17.9676639 65.2580016,17.3003372 64.946,16.529 C64.6339985,15.7576628 64.478,14.9126713 64.478,13.994 Z M66.038,13.994 C66.038,14.6700034 66.1463323,15.306997 66.363,15.905 C66.5796678,16.503003 66.895998,17.0229978 67.312,17.465 C67.7280021,17.9070022 68.2306638,18.2579987 68.82,18.518 C69.4093363,18.7780013 70.0679964,18.908 70.796,18.908 C71.5240037,18.908 72.1826638,18.7780013 72.772,18.518 C73.3613363,18.2579987 73.863998,17.9070022 74.28,17.465 C74.6960021,17.0229978 75.0123323,16.503003 75.229,15.905 C75.4456678,15.306997 75.554,14.6700034 75.554,13.994 C75.554,13.3179966 75.4456678,12.681003 75.229,12.083 C75.0123323,11.484997 74.6960021,10.9650022 74.28,10.523 C73.863998,10.0809978 73.3613363,9.7300013 72.772,9.47 C72.1826638,9.2099987 71.5240037,9.08 70.796,9.08 C70.0679964,9.08 69.4093363,9.2099987 68.82,9.47 C68.2306638,9.7300013 67.7280021,10.0809978 67.312,10.523 C66.895998,10.9650022 66.5796678,11.484997 66.363,12.083 C66.1463323,12.681003 66.038,13.3179966 66.038,13.994 Z M79.8380001,11.368 C79.8380001,11.1426655 79.8293335,10.8696683 79.8120001,10.549 C79.7946666,10.2283317 79.7816668,9.90333498 79.7730001,9.574 C79.7643333,9.24466502 79.7513335,8.93700143 79.7340001,8.651 C79.7166666,8.36499857 79.7080001,8.14400078 79.7080001,7.988 L81.2680001,7.988 C81.2853335,8.43866892 81.2983333,8.87199792 81.3070001,9.288 C81.3156668,9.70400208 81.3373332,9.97266606 81.3720001,10.094 C81.7706687,9.38332978 82.2819969,8.80266892 82.9060001,8.352 C83.5300032,7.90133108 84.2926622,7.676 85.1940001,7.676 C85.3500008,7.676 85.501666,7.68899987 85.6490001,7.715 C85.7963341,7.74100013 85.9479993,7.77133316 86.1040001,7.806 L85.9220001,9.34 C85.713999,9.27066632 85.5146677,9.236 85.3240001,9.236 C84.6479967,9.236 84.0630025,9.34433225 83.5690001,9.561 C83.0749976,9.77766775 82.6676683,10.0766648 82.3470001,10.458 C82.0263318,10.8393352 81.7880008,11.2856641 81.6320001,11.797 C81.4759993,12.3083359 81.3980001,12.8586637 81.3980001,13.448 L81.3980001,20 L79.8380001,20 L79.8380001,11.368 Z M97.7720001,17.894 L97.7200001,17.894 C97.4773322,18.3100021 97.1740019,18.6696652 96.8100001,18.973 C96.4459982,19.2763349 96.0516689,19.5276657 95.6270001,19.727 C95.2023313,19.9263343 94.7560024,20.0736662 94.2880001,20.169 C93.8199977,20.2643338 93.360669,20.312 92.9100001,20.312 C91.9913288,20.312 91.142004,20.1560016 90.3620001,19.844 C89.5819962,19.5319984 88.9146695,19.0943362 88.3600001,18.531 C87.8053306,17.9676639 87.3720016,17.3003372 87.0600001,16.529 C86.7479985,15.7576628 86.5920001,14.9126713 86.5920001,13.994 C86.5920001,13.0753287 86.7479985,12.2303372 87.0600001,11.459 C87.3720016,10.6876628 87.8053306,10.0203361 88.3600001,9.457 C88.9146695,8.89366385 89.5819962,8.45600156 90.3620001,8.144 C91.142004,7.83199844 91.9913288,7.676 92.9100001,7.676 C93.360669,7.676 93.8199977,7.72366619 94.2880001,7.819 C94.7560024,7.91433381 95.2023313,8.06166567 95.6270001,8.261 C96.0516689,8.46033433 96.4459982,8.71166515 96.8100001,9.015 C97.1740019,9.31833485 97.4773322,9.67799792 97.7200001,10.094 L97.7720001,10.094 L97.7720001,0.344 L99.3320001,0.344 L99.3320001,20 L97.7720001,20 L97.7720001,17.894 Z M97.9280001,13.994 C97.9280001,13.3179966 97.7980014,12.681003 97.5380001,12.083 C97.2779988,11.484997 96.922669,10.9650022 96.4720001,10.523 C96.0213311,10.0809978 95.4926698,9.7300013 94.8860001,9.47 C94.2793304,9.2099987 93.6206703,9.08 92.9100001,9.08 C92.1819964,9.08 91.5233363,9.2099987 90.9340001,9.47 C90.3446638,9.7300013 89.8420021,10.0809978 89.4260001,10.523 C89.009998,10.9650022 88.6936678,11.484997 88.4770001,12.083 C88.2603323,12.681003 88.1520001,13.3179966 88.1520001,13.994 C88.1520001,14.6700034 88.2603323,15.306997 88.4770001,15.905 C88.6936678,16.503003 89.009998,17.0229978 89.4260001,17.465 C89.8420021,17.9070022 90.3446638,18.2579987 90.9340001,18.518 C91.5233363,18.7780013 92.1819964,18.908 92.9100001,18.908 C93.6206703,18.908 94.2793304,18.7780013 94.8860001,18.518 C95.4926698,18.2579987 96.0213311,17.9070022 96.4720001,17.465 C96.922669,17.0229978 97.2779988,16.503003 97.5380001,15.905 C97.7980014,15.306997 97.9280001,14.6700034 97.9280001,13.994 Z M108.446,1.592 L113.438,1.592 L118.352,14.488 L123.318,1.592 L128.258,1.592 L128.258,20 L125.138,20 L125.138,4.712 L125.086,4.712 L119.496,20 L117.208,20 L111.618,4.712 L111.566,4.712 L111.566,20 L108.446,20 L108.446,1.592 Z M139.198,18.284 L139.12,18.284 C138.669331,18.9946702 138.097337,19.5103317 137.404,19.831 C136.710663,20.1516683 135.948004,20.312 135.116,20.312 C134.543997,20.312 133.985003,20.2340008 133.439,20.078 C132.892997,19.9219992 132.407669,19.6880016 131.983,19.376 C131.558331,19.0639984 131.216001,18.6740023 130.956,18.206 C130.695999,17.7379977 130.566,17.1920031 130.566,16.568 C130.566,15.8919966 130.687332,15.315669 130.93,14.839 C131.172668,14.362331 131.497665,13.9636683 131.905,13.643 C132.312335,13.3223317 132.784664,13.0666676 133.322,12.876 C133.859336,12.6853324 134.418331,12.5423338 134.999,12.447 C135.57967,12.3516662 136.164664,12.2910001 136.754,12.265 C137.343336,12.2389999 137.897997,12.226 138.418,12.226 L139.198,12.226 L139.198,11.888 C139.198,11.1079961 138.929336,10.523002 138.392,10.133 C137.854664,9.74299805 137.170004,9.548 136.338,9.548 C135.67933,9.548 135.064003,9.66499883 134.492,9.899 C133.919997,10.1330012 133.426002,10.4493313 133.01,10.848 L131.372,9.21 C132.065337,8.49932978 132.875662,7.98800156 133.803,7.676 C134.730338,7.36399844 135.687995,7.208 136.676,7.208 C137.560005,7.208 138.30533,7.30766567 138.912,7.507 C139.51867,7.70633433 140.021331,7.96199844 140.42,8.274 C140.818669,8.58600156 141.126332,8.94566463 141.343,9.353 C141.559668,9.76033537 141.715666,10.1719979 141.811,10.588 C141.906334,11.0040021 141.962667,11.406998 141.98,11.797 C141.997334,12.1870019 142.006,12.5293319 142.006,12.824 L142.006,20 L139.198,20 L139.198,18.284 Z M139.016,14.41 L138.366,14.41 C137.932665,14.41 137.447336,14.4273332 136.91,14.462 C136.372664,14.4966668 135.865669,14.5789994 135.389,14.709 C134.912331,14.8390007 134.509335,15.0296654 134.18,15.281 C133.850665,15.5323346 133.686,15.8833311 133.686,16.334 C133.686,16.6286681 133.750999,16.8756657 133.881,17.075 C134.011001,17.2743343 134.179999,17.4433326 134.388,17.582 C134.596001,17.7206674 134.829999,17.820333 135.09,17.881 C135.350001,17.941667 135.609999,17.972 135.87,17.972 C136.944672,17.972 137.737664,17.7163359 138.249,17.205 C138.760336,16.6936641 139.016,15.9960044 139.016,15.112 L139.016,14.41 Z M144.6,7.52 L147.564,7.52 L147.564,9.522 L147.616,9.522 C147.910668,8.89799688 148.36133,8.35633563 148.968,7.897 C149.57467,7.43766437 150.397995,7.208 151.438,7.208 C152.270004,7.208 152.976331,7.34666528 153.557,7.624 C154.13767,7.90133472 154.609998,8.26533108 154.974,8.716 C155.338002,9.16666892 155.597999,9.68666372 155.754,10.276 C155.910001,10.8653363 155.988,11.4806635 155.988,12.122 L155.988,20 L152.868,20 L152.868,13.682 C152.868,13.3353316 152.850667,12.9496688 152.816,12.525 C152.781333,12.1003312 152.690334,11.7016685 152.543,11.329 C152.395666,10.9563315 152.166002,10.6443346 151.854,10.393 C151.541999,10.1416654 151.117336,10.016 150.58,10.016 C150.059998,10.016 149.622335,10.1026658 149.267,10.276 C148.911665,10.4493342 148.617001,10.6833319 148.383,10.978 C148.148999,11.2726681 147.980001,11.6106648 147.876,11.992 C147.772,12.3733352 147.72,12.7719979 147.72,13.188 L147.72,20 L144.6,20 L144.6,7.52 Z M166.564,18.284 L166.486,18.284 C166.035331,18.9946702 165.463337,19.5103317 164.77,19.831 C164.076663,20.1516683 163.314004,20.312 162.482,20.312 C161.909997,20.312 161.351003,20.2340008 160.805,20.078 C160.258997,19.9219992 159.773669,19.6880016 159.349,19.376 C158.924331,19.0639984 158.582001,18.6740023 158.322,18.206 C158.061999,17.7379977 157.932,17.1920031 157.932,16.568 C157.932,15.8919966 158.053332,15.315669 158.296,14.839 C158.538668,14.362331 158.863665,13.9636683 159.271,13.643 C159.678335,13.3223317 160.150664,13.0666676 160.688,12.876 C161.225336,12.6853324 161.784331,12.5423338 162.365,12.447 C162.94567,12.3516662 163.530664,12.2910001 164.12,12.265 C164.709336,12.2389999 165.263998,12.226 165.784,12.226 L166.564,12.226 L166.564,11.888 C166.564,11.1079961 166.295336,10.523002 165.758,10.133 C165.220664,9.74299805 164.536004,9.548 163.704,9.548 C163.04533,9.548 162.430003,9.66499883 161.858,9.899 C161.285997,10.1330012 160.792002,10.4493313 160.376,10.848 L158.738,9.21 C159.431337,8.49932978 160.241662,7.98800156 161.169,7.676 C162.096338,7.36399844 163.053995,7.208 164.042,7.208 C164.926005,7.208 165.67133,7.30766567 166.278,7.507 C166.88467,7.70633433 167.387331,7.96199844 167.786,8.274 C168.184669,8.58600156 168.492332,8.94566463 168.709,9.353 C168.925668,9.76033537 169.081666,10.1719979 169.177,10.588 C169.272334,11.0040021 169.328667,11.406998 169.346,11.797 C169.363334,12.1870019 169.372,12.5293319 169.372,12.824 L169.372,20 L166.564,20 L166.564,18.284 Z M166.382,14.41 L165.732,14.41 C165.298665,14.41 164.813336,14.4273332 164.276,14.462 C163.738664,14.4966668 163.231669,14.5789994 162.755,14.709 C162.278331,14.8390007 161.875335,15.0296654 161.546,15.281 C161.216665,15.5323346 161.052,15.8833311 161.052,16.334 C161.052,16.6286681 161.116999,16.8756657 161.247,17.075 C161.377001,17.2743343 161.545999,17.4433326 161.754,17.582 C161.962001,17.7206674 162.195999,17.820333 162.456,17.881 C162.716001,17.941667 162.975999,17.972 163.236,17.972 C164.310672,17.972 165.103664,17.7163359 165.615,17.205 C166.126336,16.6936641 166.382,15.9960044 166.382,15.112 L166.382,14.41 Z M184.81,7.52 L184.81,18.882 C184.81,20.0086723 184.671335,21.0269955 184.394,21.937 C184.116665,22.8470046 183.68767,23.6183302 183.107,24.251 C182.526331,24.8836698 181.794005,25.3733316 180.91,25.72 C180.025996,26.0666684 178.97734,26.24 177.764,26.24 C176.602661,26.24 175.502005,26.0926681 174.462,25.798 C173.421995,25.5033319 172.460005,24.9660039 171.576,24.186 L173.448,21.638 C174.072003,22.2100029 174.721997,22.6519984 175.398,22.964 C176.074004,23.2760016 176.853996,23.432 177.738,23.432 C178.483337,23.432 179.111664,23.328001 179.623,23.12 C180.134336,22.911999 180.541665,22.6260018 180.845,22.262 C181.148335,21.8979982 181.364999,21.4603359 181.495,20.949 C181.625001,20.4376641 181.69,19.8700031 181.69,19.246 L181.69,18.336 L181.638,18.336 C181.187331,18.9426697 180.589337,19.3976651 179.844,19.701 C179.098663,20.0043348 178.336004,20.156 177.556,20.156 C176.619995,20.156 175.770671,19.9870017 175.008,19.649 C174.24533,19.3109983 173.591003,18.8560029 173.045,18.284 C172.498997,17.7119971 172.078668,17.0360039 171.784,16.256 C171.489332,15.4759961 171.342,14.6440044 171.342,13.76 C171.342,12.8413287 171.480665,11.9833373 171.758,11.186 C172.035335,10.3886627 172.442664,9.69533628 172.98,9.106 C173.517336,8.51666372 174.162996,8.05300169 174.917,7.715 C175.671004,7.37699831 176.533329,7.208 177.504,7.208 C178.388005,7.208 179.21133,7.3813316 179.974,7.728 C180.736671,8.0746684 181.343331,8.62932952 181.794,9.392 L181.846,9.392 L181.846,7.52 L184.81,7.52 Z M178.154,10.016 C177.599331,10.016 177.096669,10.1069991 176.646,10.289 C176.195331,10.4710009 175.809668,10.7223317 175.489,11.043 C175.168332,11.3636683 174.917001,11.7536644 174.735,12.213 C174.552999,12.6723356 174.462,13.1793306 174.462,13.734 C174.462,14.2366692 174.552999,14.7046645 174.735,15.138 C174.917001,15.5713355 175.172665,15.952665 175.502,16.282 C175.831335,16.611335 176.221331,16.8713324 176.672,17.062 C177.122669,17.2526676 177.607998,17.348 178.128,17.348 C178.700003,17.348 179.215664,17.2526676 179.675,17.062 C180.134336,16.8713324 180.524332,16.6156683 180.845,16.295 C181.165668,15.9743317 181.412666,15.5886689 181.586,15.138 C181.759334,14.6873311 181.846,14.2020026 181.846,13.682 C181.846,12.5899945 181.51667,11.7060034 180.858,11.03 C180.19933,10.3539966 179.298006,10.016 178.154,10.016 Z M190.082,14.852 C190.186001,15.7880047 190.549997,16.5159974 191.174,17.036 C191.798003,17.5560026 192.551996,17.816 193.436,17.816 C194.216004,17.816 194.870331,17.6556683 195.399,17.335 C195.927669,17.0143317 196.391331,16.6113358 196.79,16.126 L199.026,17.816 C198.297996,18.7173378 197.483338,19.3586648 196.582,19.74 C195.680662,20.1213352 194.736005,20.312 193.748,20.312 C192.811995,20.312 191.928004,20.1560016 191.096,19.844 C190.263996,19.5319984 189.54467,19.0900029 188.938,18.518 C188.33133,17.9459971 187.850335,17.257004 187.495,16.451 C187.139665,15.644996 186.962,14.7480049 186.962,13.76 C186.962,12.7719951 187.139665,11.875004 187.495,11.069 C187.850335,10.262996 188.33133,9.57400286 188.938,9.002 C189.54467,8.42999714 190.263996,7.98800156 191.096,7.676 C191.928004,7.36399844 192.811995,7.208 193.748,7.208 C194.614671,7.208 195.407663,7.35966515 196.127,7.663 C196.846337,7.96633485 197.461664,8.40399714 197.973,8.976 C198.484336,9.54800286 198.882999,10.2543291 199.169,11.095 C199.455002,11.9356709 199.598,12.9019945 199.598,13.994 L199.598,14.852 L190.082,14.852 Z M196.478,12.512 C196.460667,11.5933287 196.17467,10.8696693 195.62,10.341 C195.065331,9.81233069 194.294005,9.548 193.306,9.548 C192.369995,9.548 191.629003,9.81666398 191.083,10.354 C190.536997,10.891336 190.203334,11.6106622 190.082,12.512 L196.478,12.512 Z M201.75,7.52 L204.87,7.52 L204.87,9.496 L204.922,9.496 C205.268669,8.76799636 205.762664,8.20466866 206.404,7.806 C207.045337,7.40733134 207.781996,7.208 208.614,7.208 C208.804668,7.208 208.990999,7.22533316 209.173,7.26 C209.355001,7.29466684 209.541333,7.33799974 209.732,7.39 L209.732,10.406 C209.471999,10.3366663 209.216335,10.2803335 208.965,10.237 C208.713666,10.1936664 208.466668,10.172 208.224,10.172 C207.495997,10.172 206.911002,10.306332 206.469,10.575 C206.026998,10.843668 205.689001,11.1513316 205.455,11.498 C205.220999,11.8446684 205.065001,12.1913316 204.987,12.538 C204.909,12.8846684 204.87,13.1446658 204.87,13.318 L204.87,20 L201.75,20 L201.75,7.52 Z" id="Password-Manager" fill="#1C68D6"></path>
    </g>
</svg>