<?xml version="1.0" encoding="UTF-8"?>
<svg width="69px" height="81px" viewBox="0 0 69 81" version="1.1" xmlns="http://www.w3.org/2000/svg" xmlns:xlink="http://www.w3.org/1999/xlink">
    <!-- Generator: Sketch 46.2 (44496) - http://www.bohemiancoding.com/sketch -->
    <title>Asset 51</title>
    <desc>Created with Sketch.</desc>
    <defs></defs>
    <g id="Login-/-Sign-Up" stroke="none" stroke-width="1" fill="none" fill-rule="evenodd" opacity="0.1">
        <g id="00a_login" transform="translate(-791.000000, -81.000000)" fill-rule="nonzero" fill="#FFFFFF">
            <g id="Asset-51" transform="translate(791.000000, 80.000000)">
                <path d="M69,41.68 L69,40.68 L57.81,40.68 L46.67,21.38 L58,1.75 C58.1095175,1.52119113 58.0303413,1.2466293 57.8158069,1.11126833 C57.6012725,0.975907354 57.3193708,1.02264618 57.16,1.22 L57.07,1.17 L45.71,20.84 L23.32,20.84 L12,1.25 C11.8619288,1.00975613 11.5552439,0.926928813 11.315,1.065 C11.0747561,1.20307119 10.9919288,1.50975613 11.13,1.75 L22.47,21.38 L11.33,40.68 L0,40.68 L0,41.68 L11.21,41.68 L22.42,61.1 L11.21,80.52 L0,80.52 L0,81.52 L11.79,81.52 L23.24,61.68 L45.76,61.68 L57.07,81.27 L57.21,81.52 L69,81.52 L69,80.52 L57.79,80.52 L46.64,61.2 L57.91,41.68 L69,41.68 Z M23.32,21.92 L45.76,21.92 L56.9,41.22 L45.67,60.68 L23.36,60.68 L12.15,41.26 L23.32,21.92 Z" id="Shape"></path>
            </g>
        </g>
    </g>
</svg>