<?xml version="1.0" encoding="UTF-8"?>
<svg width="13px" height="9px" viewBox="0 0 13 9" version="1.1" xmlns="http://www.w3.org/2000/svg" xmlns:xlink="http://www.w3.org/1999/xlink">
    <!-- Generator: Sketch 52.4 (67378) - http://www.bohemiancoding.com/sketch -->
    <title>Shape Copy</title>
    <desc>Created with Sketch.</desc>
    <g id="Login-/-Sign-Up" stroke="none" stroke-width="1" fill="none" fill-rule="evenodd">
        <g id="00a_login-copy-9" transform="translate(-837.000000, -434.000000)" fill="#FFFFFF" fill-rule="nonzero">
            <path d="M843.5,434 C840.545455,434 838.004545,435.86 837,438.5 C838.004545,441.14 840.545455,443 843.5,443 C846.454545,443 848.995455,441.14 850,438.5 C848.995455,435.86 846.454545,434 843.5,434 Z M843.5,442 C841.54,442 840,440.46 840,438.5 C840,436.54 841.54,435 843.5,435 C845.46,435 847,436.54 847,438.5 C847,440.46 845.46,442 843.5,442 Z M843.5,436 C842.083333,436 841,437.083333 841,438.5 C841,439.916667 842.083333,441 843.5,441 C844.916667,441 846,439.916667 846,438.5 C846,437.083333 844.916667,436 843.5,436 Z" id="Shape-Copy"></path>
        </g>
    </g>
</svg>